<svg width="512" height="512" viewBox="0 0 512 512" fill="none" xmlns="http://www.w3.org/2000/svg">
<path d="M168.832 276.244L339.498 126.682C378.953 117.506 467.001 122.976 512 133.105C481.095 129.06 442.265 138.61 421.161 157.879L197.276 350.567H164.244L65.147 244.13L179.842 337.721L408.315 143.198H350.509L167.914 303.771L69.7348 202.839L28.4445 242.295L157.821 369.836L333.075 377.176L144.057 390.022L0 239.542L69.7348 172.56L168.832 276.244Z" fill="url(#paint0_radial_3_50)"/>
<path d="M94.509 169.807L172.502 248.717L315.183 124.388L185.807 217.062C162.867 230.825 125.556 192.811 94.509 169.807Z" fill="url(#paint1_radial_3_50)"/>
<defs>
<radialGradient id="paint0_radial_3_50" cx="0" cy="0" r="1" gradientUnits="userSpaceOnUse" gradientTransform="translate(256 256.011) scale(204.322 204.322)">
<stop offset="0.44271" stop-color="#F1FF21"/>
<stop offset="1" stop-color="#AAA100"/>
</radialGradient>
<radialGradient id="paint1_radial_3_50" cx="0" cy="0" r="1" gradientUnits="userSpaceOnUse" gradientTransform="translate(204.846 186.553) scale(89.5508 89.5508)">
<stop offset="0.44271" stop-color="#F1FF21"/>
<stop offset="1" stop-color="#AAA100"/>
</radialGradient>
</defs>
</svg>
